<?xml version="1.0"?>
<svg xmlns:rdf="http://www.w3.org/1999/02/22-rdf-syntax-ns#" xmlns="http://www.w3.org/2000/svg" xmlns:cc="http://creativecommons.org/ns#" xmlns:xlink="http://www.w3.org/1999/xlink" xmlns:dc="http://purl.org/dc/elements/1.1/" xmlns:svg="http://www.w3.org/2000/svg" id="svg2" viewBox="0 0 510 220" version="1.1">
  <defs id="defs6">
    <linearGradient id="linearGradient4372">
      <stop id="stop4376" stop-color="#1a1a1a" offset="0"/>
      <stop id="stop4374" stop-color="#4d4d4d" offset="1"/>
    </linearGradient>
    <linearGradient id="linearGradient4915" y2="-288.84" gradientUnits="userSpaceOnUse" x2="387.94" y1="-30.603" x1="-15.594">
      <stop id="stop3868" stop-color="#803300" offset="0"/>
      <stop id="stop3870" stop-color="#803300" stop-opacity="0" offset="1"/>
    </linearGradient>
    <radialGradient id="radialGradient4917" gradientUnits="userSpaceOnUse" cy="-168.86" cx="118.23" gradientTransform="matrix(2.0706 0 0 1.5649 -148.5 89.357)" r="138.24">
      <stop id="stop3783" stop-opacity="0" offset="0"/>
      <stop id="stop3781" offset="1"/>
    </radialGradient>
    <radialGradient id="radialGradient4919" gradientUnits="userSpaceOnUse" cy="5.6501" cx="189.53" gradientTransform="matrix(3.424 0 0 4.9298 -459.43 -22.204)" r="17.925">
      <stop id="stop3920" stop-color="#7b5126" offset="0"/>
      <stop id="stop3922" offset="1"/>
    </radialGradient>
    <linearGradient id="linearGradient4921" y2="-90.323" gradientUnits="userSpaceOnUse" x2="265.03" y1="-166.04" x1="139.23">
      <stop id="stop3908" stop-color="#fff" offset="0"/>
      <stop id="stop3910" stop-color="#4d4d4d" offset="1"/>
    </linearGradient>
    <radialGradient id="radialGradient4923" gradientUnits="userSpaceOnUse" cy="-184.84" cx="301.86" gradientTransform="matrix(1 -.12817 .032271 .25177 5.9649 -99.61)" r="109.23">
      <stop id="stop3964" stop-color="#a15e31" offset="0"/>
      <stop id="stop3962" stop-color="#997150" offset="1"/>
    </radialGradient>
    <linearGradient id="linearGradient4925" y2="-214.23" gradientUnits="userSpaceOnUse" x2="491.34" gradientTransform="translate(-2.478 .71702)" y1="-202.23" x1="410.13">
      <stop id="stop3930" stop-color="#492914" offset="0"/>
      <stop id="stop3938" stop-color="#794522" offset=".25"/>
      <stop id="stop3936" stop-color="#1a1a1a" offset=".5"/>
      <stop id="stop3940" stop-color="#683b1d" offset=".75"/>
      <stop id="stop3932" stop-color="#412512" offset="1"/>
    </linearGradient>
    <linearGradient id="linearGradient4927" y2="-221.12" gradientUnits="userSpaceOnUse" x2="413.8" gradientTransform="translate(-.23990 -.47979)" y1="-150.37" x1="577.36">
      <stop id="stop3950" offset="0"/>
      <stop id="stop3952" stop-opacity="0" offset="1"/>
    </linearGradient>
    <linearGradient id="linearGradient4929" y2="78.258" gradientUnits="userSpaceOnUse" x2="59.952" y1="55.104" x1="54.443">
      <stop id="stop4063" stop-color="#4b4a48" offset="0"/>
      <stop id="stop4065" stop-color="#857877" offset="1"/>
    </linearGradient>
    <linearGradient id="linearGradient4931" y2="125.07" gradientUnits="userSpaceOnUse" x2="63.893" y1="146.87" x1="66.872">
      <stop id="stop4041" stop-color="#4b4a48" offset="0"/>
      <stop id="stop4043" stop-color="#8b7d7c" offset="1"/>
    </linearGradient>
    <linearGradient id="linearGradient4933" y2="96.134" gradientUnits="userSpaceOnUse" x2="112.22" gradientTransform="translate(-38.533 2.704)" y1="99.134" x1="88.039">
      <stop id="stop3995" stop-color="#4d4445" offset="0"/>
      <stop id="stop3997" stop-color="#7b706b" offset="1"/>
    </linearGradient>
    <linearGradient id="linearGradient4935" y2="96.965" gradientUnits="userSpaceOnUse" x2="112.22" gradientTransform="translate(-38.533 3.3801)" y1="98.965" x1="97.683">
      <stop id="stop4005" offset="0"/>
      <stop id="stop4007" stop-color="#333" offset="1"/>
    </linearGradient>
    <linearGradient id="linearGradient4937" y2="98.822" gradientUnits="userSpaceOnUse" x2="111.83" gradientTransform="matrix(.21429 -.030590 .061989 1.0704 38.291 -.51771)" y1="98.965" x1="97.683">
      <stop id="stop4020" stop-color="#fff" offset="0"/>
      <stop id="stop4022" stop-color="#b3b3b3" offset="1"/>
    </linearGradient>
    <linearGradient id="linearGradient4939" y2="52.398" gradientUnits="userSpaceOnUse" x2="54.164" y1="65.749" x1="56.216">
      <stop id="stop4084" offset="0"/>
      <stop id="stop4086" stop-opacity="0" offset="1"/>
    </linearGradient>
    <linearGradient id="linearGradient4941" y2="146.77" gradientUnits="userSpaceOnUse" x2="69.033" y1="135.79" x1="67.905">
      <stop id="stop4076" offset="0"/>
      <stop id="stop4078" stop-opacity="0" offset="1"/>
    </linearGradient>
    <linearGradient id="linearGradient4943" y2="-167.74" gradientUnits="userSpaceOnUse" y1="-212.67" x2="325.64" x1="316.49">
      <stop id="stop4229" stop-color="#fff" offset="0"/>
      <stop id="stop4231" stop-color="#b3b3b3" offset="1"/>
    </linearGradient>
    <radialGradient id="radialGradient4981" gradientUnits="userSpaceOnUse" cy="-114.15" cx="355.92" r="7.0981">
      <stop id="stop4361" stop-color="#fff" offset="0"/>
      <stop id="stop4359" stop-color="#808080" offset="1"/>
    </radialGradient>
    <radialGradient id="radialGradient4983" xlink:href="#linearGradient4372" gradientUnits="userSpaceOnUse" cy="-112.2" cx="353.81" gradientTransform="matrix(.71228 .042890 -.017826 .29604 176.95 -196.99)" r="5"/>
    <radialGradient id="radialGradient4987" xlink:href="#linearGradient4372" gradientUnits="userSpaceOnUse" cy="-112.2" cx="353.81" gradientTransform="matrix(.53191 -.47566 .19770 .22108 295.17 -28.728)" r="5"/>
    <radialGradient id="radialGradient4991" xlink:href="#linearGradient4372" gradientUnits="userSpaceOnUse" cy="-112.2" cx="353.81" gradientTransform="matrix(.69923 .14233 -.059156 .29062 192.31 -236.19)" r="5"/>
    <radialGradient id="radialGradient5019" xlink:href="#linearGradient4372" gradientUnits="userSpaceOnUse" cy="-112.2" cx="353.81" gradientTransform="matrix(.28006 -.65632 .27278 .11640 364.94 46.102)" r="5"/>
    <radialGradient id="radialGradient5023" xlink:href="#linearGradient4372" gradientUnits="userSpaceOnUse" cy="-112.2" cx="353.81" gradientTransform="matrix(.54293 .46305 -.19245 .22565 234.84 -338.16)" r="5"/>
    <radialGradient id="radialGradient5027" xlink:href="#linearGradient4372" gradientUnits="userSpaceOnUse" cy="-112.2" cx="353.81" gradientTransform="matrix(.70601 .10361 -.043061 .29344 209.21 -203.83)" r="5"/>
    <radialGradient id="radialGradient5029" gradientUnits="userSpaceOnUse" cy="-202.88" cx="409.66" gradientTransform="matrix(1 0 0 4.3182 0 673.2)" r="2.6291">
      <stop id="stop4814" stop-color="#fff" offset="0"/>
      <stop id="stop4812" stop-color="#ccc" offset="1"/>
    </radialGradient>
    <radialGradient id="radialGradient5772" gradientUnits="userSpaceOnUse" cy="-133.23" cx="77.038" gradientTransform="matrix(.75494 0 0 .64753 35.759 -54.579)" r="138.74">
      <stop id="stop2995" stop-color="#d38d5f" offset="0"/>
      <stop id="stop2993" stop-color="#c87137" offset="1"/>
    </radialGradient>
    <linearGradient id="linearGradient5785" y2="-430.45" gradientUnits="userSpaceOnUse" x2="843.32" y1="-591.34" x1="818.22">
      <stop id="stop5781" stop-color="#fff" offset="0"/>
      <stop id="stop5783" stop-color="#fff" stop-opacity="0" offset="1"/>
    </linearGradient>
  </defs>
  <g id="g5787" transform="translate(-709.98 478.58)">
    <g id="g4820" transform="translate(717.1 -213.64)">
      <path id="path2989" fill="url(#radialGradient5772)" d="m8.1262-149.94c-2.8008-30.617 7.5603-66.033 29.763-87.3 17.717-16.97 46.125-22.105 70.619-20.73 25.882 1.4522 45.838 28.363 71.702 30.115 20.112 1.3621 42.361-27.89 58.405-15.686 13.166 10.015-10.462 37.14 0.39006 49.625 7.6851 8.8421 26.297-2.9277 34.763 5.1702 11.517 11.016 11.52 31.177 9.1262 46.933-2.0113 13.237-7.4901 28.587-19.033 35.373-18.433 10.837-46.406-11.633-64.141-0.91204-28.444 17.194-40.009 45.851-67.79 52.927-25.354 6.4585-56.021 2.211-77.438-12.818-25.868-18.154-43.488-51.225-46.367-82.696z"/>
      <path id="path3803" opacity=".80602" d="m100.86-258.24c-9.5046 1.0671-18.995 2.1599-28.5 3.2188-2.17 0.5207-4.3226 1.1202-6.4375 1.7812 13.782-1.6164 27.56-3.2122 41.344-4.8125-2.1111-0.10375-4.2495-0.18404-6.4062-0.1875zm15.062 1.4375c-6.2959 0.73928-12.611 1.4768-18.906 2.2188-13.516 1.6104-27.014 3.2666-40.531 4.875-0.91718 0.40915-1.8224 0.83902-2.7188 1.2812 14.121-1.773 28.251-3.5992 42.375-5.3438 6.3238-0.76822 12.644-1.5194 18.969-2.2812 1.1216-0.13511 1.623-0.18793 2.6562-0.3125-0.57336-0.16508-1.1717-0.29382-1.75-0.4375-0.0384 0.005-0.0553-0.005-0.0937 0zm10.969 3.9375c-14.546 1.4558-29.072 2.8893-43.625 4.2812-12.08 1.2683-24.177 2.5765-36.25 3.9062-0.66044 0.42067-1.2943 0.86957-1.9375 1.3125 12.388-1.456 24.759-2.9056 37.156-4.2812 15.242-1.549 30.479-3.1174 45.719-4.6875-0.35955-0.17495-0.70162-0.36203-1.0625-0.53125zm4.4688 2.2812c-21.011 2.1429-42.015 4.3731-63 6.7812-8.8817 0.97623-17.774 1.9684-26.656 2.9375-0.48978 0.38854-0.96045 0.78401-1.4375 1.1875 8.976-1.0698 17.96-2.1236 26.938-3.1875 21.613-2.6358 43.252-5.051 64.906-7.3125-0.24983-0.13621-0.49968-0.27215-0.75-0.40625zm4.9062 2.7188c-0.1566 0.0177-0.31215 0.0448-0.46875 0.0625-7.0442 0.79411-14.081 1.5814-21.125 2.375-25.857 2.9066-51.729 5.7939-77.594 8.625-0.49757 0.48545-0.98329 0.96922-1.4688 1.4688 25.902-3.08 51.84-6.118 77.75-9.125 7.0797-0.81984 14.139-1.6181 21.219-2.4375 0.91661-0.10607 1.8334-0.2066 2.75-0.3125-0.35716-0.21313-0.70474-0.44576-1.0625-0.65625zm98.969 2.4375c-4.0513 0.35873-8.1057 0.72491-12.156 1.0938-1.4379 0.13207-2.8746 0.2738-4.3125 0.40625-0.3943 0.17046-0.79066 0.34885-1.1875 0.53125 1.6356-0.14988 3.2706-0.31954 4.9062-0.46875 4.5049-0.40865 8.994-0.79518 13.5-1.1875-0.25115-0.12754-0.49622-0.26459-0.75-0.375zm-94.781 0.125c-2.7768 0.30597-5.4084 0.58198-7.9688 0.875-5.8042 0.66307-11.606 1.3414-19.875 2.3125-6.2959 0.73927-12.579 1.5079-18.875 2.25-20.195 2.4062-40.387 4.8792-60.594 7.1875-0.35336 0.39784-0.68496 0.81342-1.0312 1.2188 20.243-2.4959 40.476-5.0934 60.719-7.5938 6.3238-0.76822 12.644-1.5507 18.969-2.3125 12.85-1.5479 19.554-2.3473 29.5-3.4375-0.27752-0.17137-0.56606-0.32936-0.84375-0.5zm98 1.7812c-7.612 0.71351-16.11 1.5498-25.625 2.5-0.48768 0.26191-0.97841 0.51081-1.4688 0.78125 10.448-1.0534 19.376-1.9018 27.75-2.6875-0.21124-0.19486-0.42132-0.40992-0.65625-0.59375zm-90.406 2.9062c-22.694 2.2798-45.389 4.5783-68.094 6.75-16.802 1.7641-33.583 3.6188-50.375 5.4688-0.32601 0.4196-0.64973 0.85494-0.96875 1.2812 16.771-1.9929 33.557-3.9498 50.344-5.8125 23.317-2.3697 46.622-4.8079 69.937-7.1875-0.27967-0.17079-0.56431-0.32829-0.84375-0.5zm93.438 1.0938c-9.1748 0.69813-18.332 1.4635-27.5 2.25-3.0791 0.26621-6.1716 0.51186-9.25 0.78125-0.4272 0.2422-0.85306 0.47853-1.2812 0.71875 3.2613-0.28537 6.5193-0.56142 9.7812-0.84375 9.4977-0.82485 18.994-1.5642 28.5-2.2812-0.0733-0.2126-0.16364-0.41856-0.25-0.625zm-88.531 1.8438c-27.653 2.7358-55.296 5.6128-82.906 8.7812-14.524 1.5964-29.034 3.2006-43.562 4.75-0.30714 0.44681-0.60634 0.89068-0.90625 1.3438 14.436-1.7522 28.871-3.4448 43.312-5.1562 28.208-3.44 56.477-6.5048 84.75-9.3438-0.22614-0.1302-0.46167-0.24353-0.6875-0.375zm4.5938 2.5312c-6.6873 0.74462-13.376 1.496-20.062 2.25-7.0442 0.79412-14.081 1.5814-21.125 2.375-29.908 3.362-59.798 6.7236-89.719 9.9688-0.89349 0.0974-1.7941 0.18336-2.6875 0.28125-0.31311 0.50708-0.63306 1.0174-0.9375 1.5312 0.46894-0.0559 0.93732-0.10024 1.4062-0.15625 30.199-3.6218 60.412-7.1499 90.625-10.656 7.0797-0.81985 14.17-1.6181 21.25-2.4375 7.4586-0.86311 14.915-1.7171 22.375-2.5625-0.37652-0.19398-0.74972-0.39455-1.125-0.59375zm84.875 0.71875c-13.791 1.1478-27.568 2.3286-41.344 3.6562-3.3361 0.32141-6.6644 0.67421-10 1-0.82206 0.29538-1.6492 0.51476-2.4688 0.75 3.9349-0.38621 7.8769-0.77708 11.812-1.1562 13.998-1.3509 27.985-2.5464 42-3.6875 0.004-0.18821 0.00092-0.37684 0-0.5625zm-79.688 1.875c-2.8789 0.28976-5.747 0.57264-8.625 0.875-8.2992 0.87194-14.133 1.492-19.938 2.1562-5.8041 0.66307-11.575 1.3727-19.844 2.3438-6.2959 0.73927-12.611 1.4766-18.906 2.2188-24.587 2.9295-49.167 5.9629-73.781 8.6562-0.24184 0.43579-0.48294 0.87245-0.71875 1.3125 24.549-2.96 49.084-6.125 73.625-9.1562 6.3238-0.76821 12.644-1.5507 18.969-2.3125 16.815-2.0255 22.969-2.7853 39.844-4.5625 3.4964-0.36819 7.0022-0.7135 10.5-1.0625-0.36973-0.15905-0.75684-0.30306-1.125-0.46875zm79.562 0.5625c-5.1559 0.45344-10.314 0.90562-15.469 1.375-51.051 4.689-102.09 9.6232-153.03 15.469-18.595 2.0439-37.175 4.0975-55.781 6.0312-0.23328 0.50882-0.46176 1.0181-0.6875 1.5312 18.431-2.2824 36.869-4.4706 55.312-6.6562 51.091-6.2305 102.35-11.2 153.59-15.875 5.3391-0.48433 10.659-0.9445 16-1.4062 0.019-0.1578 0.0463-0.31232 0.0625-0.46875zm-0.34375 2.25c-9.1116 0.85439-17.675 1.68-30.75 3-23.338 2.3562-46.66 4.9655-69.969 7.5938-7.0442 0.7941-14.081 1.5814-21.125 2.375-29.908 3.362-59.798 6.7236-89.719 9.9688-4.6796 0.50996-9.3829 1.0271-14.062 1.5312-0.21858 0.52939-0.4143 1.0604-0.625 1.5938 4.1598-0.49865 8.3082-1.0031 12.469-1.5 30.199-3.6218 60.412-7.1186 90.625-10.625 7.0797-0.81986 14.17-1.6494 21.25-2.4688 23.375-2.7049 46.747-5.3334 70.156-7.7188 13.535-1.3792 22.215-2.2068 31.656-3.0938 0.0413-0.21571 0.0563-0.4425 0.0937-0.65625zm-65.625 1.4062c-31.554 3.1289-63.123 6.3558-94.687 9.375-20.732 2.1768-41.434 4.5157-62.156 6.7812-0.22101 0.44428-0.44119 0.89573-0.65625 1.3438 20.593-2.4614 41.199-4.9001 61.812-7.1875 32.71-3.3244 65.408-6.7466 98.125-10-0.81877-0.0795-1.63-0.18504-2.4375-0.3125zm64.688 2.9062c-7.7663 0.60073-15.52 1.2092-23.281 1.875-19.974 1.7269-39.935 3.4989-59.875 5.5938-8.2992 0.87185-14.133 1.5233-19.938 2.1875-5.8042 0.66306-11.575 1.3414-19.844 2.3125-6.2959 0.73927-12.611 1.5079-18.906 2.25-27.22 3.2432-54.427 6.6443-81.687 9.5312-0.89663 0.0965-1.7909 0.18439-2.6875 0.28125-0.17188 0.46412-0.334 0.93958-0.5 1.4062 0.52098-0.0628 1.0416-0.12459 1.5625-0.1875 27.494-3.2491 54.962-6.8249 82.437-10.219 6.3239-0.76813 12.644-1.5507 18.969-2.3125 16.815-2.0255 22.969-2.7854 39.844-4.5625 19.936-2.0994 39.905-3.8653 59.875-5.5938 7.9464-0.69013 15.891-1.3248 23.844-1.9375 0.0568-0.21095 0.13275-0.41513 0.1875-0.625zm-1.5 5.2812c-11.571 0.98006-23.128 2.011-34.688 3.125-39.818 3.8363-79.616 8.0036-119.44 11.812-23.869 2.5061-47.701 5.2017-71.562 7.7812-0.1348 0.0146-0.27146 0.0166-0.40625 0.0312-0.16127 0.48945-0.31386 0.97696-0.46875 1.4688 23.801-2.8512 47.613-5.7 71.438-8.3438 39.923-4.0574 79.837-8.308 119.78-12.156 11.725-1.1316 23.449-2.1489 35.188-3.125 0.0595-0.19629 0.0971-0.39774 0.15625-0.59375zm-0.84375 2.7812c-3.4051 0.30276-6.8142 0.59624-10.219 0.90625-51.051 4.689-102.09 9.592-153.03 15.438-21.001 2.3082-41.982 4.6384-63 6.7812-0.16759 0.56143-0.30942 1.1235-0.46875 1.6875 20.757-2.6073 41.537-5.0692 62.312-7.5312 51.091-6.2305 102.32-11.231 153.56-15.906 3.5698-0.32383 7.1482-0.62411 10.719-0.9375 0.0436-0.14558 0.0812-0.2919 0.125-0.4375zm-0.65625 2.2812c-7.2476 0.68685-14.465 1.3863-25.188 2.4688-23.338 2.3561-46.66 4.9655-69.969 7.5938-7.0442 0.79411-14.081 1.5814-21.125 2.375-29.908 3.3619-59.829 6.7236-89.75 9.9688-6.8778 0.7495-13.744 1.5071-20.625 2.2188-0.14987 0.56987-0.29601 1.1468-0.4375 1.7188 6.2849-0.77383 12.587-1.5302 18.875-2.2812 30.199-3.6218 60.412-7.1186 90.625-10.625 7.0798-0.81986 14.139-1.6494 21.219-2.4688 23.375-2.7049 46.778-5.3647 70.188-7.75 11.122-1.1334 18.541-1.8229 26-2.5312 0.0647-0.22858 0.12142-0.45849 0.1875-0.6875zm-1.125 4.25c-5.8474 0.46312-11.718 0.93614-17.562 1.4375-19.974 1.7269-39.935 3.4989-59.875 5.5938-8.2992 0.87183-14.102 1.5232-19.906 2.1875-5.8042 0.66306-11.606 1.3414-19.875 2.3125-6.2959 0.73927-12.579 1.4767-18.875 2.2188-27.22 3.2432-54.427 6.6442-81.687 9.5312-2.8998 0.31205-5.7875 0.6554-8.6875 0.96875-0.10893 0.47748-0.20939 0.95892-0.3125 1.4375 2.4589-0.29564 4.9165-0.57811 7.375-0.875 27.494-3.2491 54.93-6.8561 82.406-10.25 6.3238-0.76812 12.644-1.5194 18.969-2.2812 16.815-2.0255 23-2.7854 39.875-4.5625 19.936-2.0994 39.905-3.8653 59.875-5.5938 6.04-0.52457 12.081-1.0216 18.125-1.5 0.0473-0.20918 0.10638-0.41486 0.15625-0.625zm-0.96875 5.2812c-9.8302 0.84566-19.647 1.7097-29.469 2.6562-39.818 3.8362-79.616 8.0035-119.44 11.812-23.869 2.5062-47.701 5.2329-71.562 7.8125-1.9568 0.21163-3.9186 0.44135-5.875 0.65625-0.09202 0.4764-0.19498 0.96038-0.28125 1.4375 1.4776-0.17577 2.9601-0.35362 4.4375-0.53125 24.082-2.8851 48.175-5.7626 72.281-8.4375 39.923-4.0574 79.806-8.2768 119.75-12.125 10.036-0.96852 20.079-1.8686 30.125-2.7188 0.0165-0.18722 0.011-0.37373 0.0312-0.5625zm-0.15625 3.25c-3.9368 0.34883-7.8765 0.70409-11.812 1.0625-51.051 4.6889-102.09 9.6233-153.03 15.469-20.658 2.2706-41.295 4.5423-61.969 6.6562-0.08868 0.54319-0.16878 1.0813-0.25 1.625 20.341-2.5483 40.704-4.9623 61.062-7.375 51.091-6.2305 102.32-11.2 153.56-15.875 4.1527-0.37671 8.3151-0.73102 12.469-1.0938-0.008-0.15646-0.027-0.31073-0.0312-0.46875zm0.21875 2.2188c-8.0176 0.75583-15.886 1.5304-27.656 2.7188-23.338 2.3561-46.66 4.9342-69.969 7.5625-7.0442 0.7941-14.081 1.6126-21.125 2.4062-29.908 3.362-59.829 6.7236-89.75 9.9688-6.3672 0.69386-12.724 1.3648-19.094 2.0312-0.07218 0.54831-0.12293 1.1078-0.1875 1.6562 5.6915-0.69444 11.4-1.3825 17.094-2.0625 30.199-3.6218 60.412-7.1186 90.625-10.625 7.0797-0.81987 14.17-1.6494 21.25-2.4688 23.375-2.7049 46.747-5.3647 70.156-7.75 12.298-1.2532 20.395-2.0238 28.75-2.8125-0.0409-0.20429-0.0613-0.41722-0.0937-0.625zm1.3438 4.0938c-7.4951 0.58164-14.978 1.17-22.469 1.8125-19.974 1.7269-39.935 3.4989-59.875 5.5938-8.2991 0.87194-14.133 1.5233-19.938 2.1875-5.8042 0.66306-11.606 1.3414-19.875 2.3125-6.2959 0.73927-12.579 1.4767-18.875 2.2188-27.22 3.2432-54.427 6.6755-81.688 9.5625-2.2215 0.23906-4.4346 0.47842-6.6562 0.71875-0.04681 0.47067-0.08382 0.93584-0.125 1.4062 1.7196-0.20672 3.4369-0.41737 5.1562-0.625 27.494-3.249 54.93-6.8249 82.406-10.219 6.3238-0.76812 12.644-1.5507 18.969-2.3125 16.815-2.0254 23-2.7853 39.875-4.5625 19.936-2.0994 39.905-3.8653 59.875-5.5938 7.8525-0.68197 15.704-1.3313 23.562-1.9375-0.11438-0.18425-0.24101-0.37334-0.34375-0.5625zm5.4062 4.6875c-13.604 1.1338-27.193 2.3154-40.781 3.625-39.818 3.8363-79.616 8.0348-119.44 11.844-23.869 2.5061-47.701 5.2017-71.562 7.7812-1.1035 0.11935-2.2092 0.25422-3.3125 0.375-0.03046 0.45934-0.03745 0.91623-0.0625 1.375 0.55252-0.0661 1.1038-0.12108 1.6562-0.1875 24.082-2.8851 48.175-5.7626 72.281-8.4375 39.923-4.0575 79.837-8.2767 119.78-12.125 14.341-1.384 28.672-2.6156 43.031-3.7812-0.54483-0.11337-1.0838-0.29017-1.5938-0.46875zm27.5 0.46875c-16.534 1.387-33.068 2.8078-49.594 4.3125-51.051 4.689-102.06 9.592-153 15.438-20.043 2.2031-40.098 4.4386-60.156 6.5-0.02036 0.51032-0.04888 1.022-0.0625 1.5312 19.675-2.4546 39.372-4.7602 59.062-7.0938 51.091-6.2305 102.32-11.231 153.56-15.906 17.06-1.5476 34.115-2.9732 51.188-4.3438-0.32372-0.16783-0.65915-0.30337-1-0.4375zm2.9375 1.7812c-6.3559 0.55497-12.707 1.0908-19.062 1.6562-20.912 1.9545-28.233 2.6127-49.094 4.7188-23.338 2.3561-46.628 4.9656-69.938 7.5938-7.0442 0.79411-14.112 1.5814-21.156 2.375-29.908 3.3619-59.798 6.7236-89.719 9.9688-5.6021 0.61049-11.209 1.2174-16.812 1.8125-0.0043 0.51778-0.0027 1.0462 0 1.5625 4.868-0.58771 9.7243-1.1372 14.594-1.7188 30.199-3.6218 60.412-7.1499 90.625-10.656 7.0797-0.81985 14.17-1.6181 21.25-2.4375 23.375-2.7049 46.747-5.3647 70.156-7.75 20.991-2.1389 28.084-2.7752 49.125-4.75 6.8943-0.6113 13.792-1.1907 20.688-1.7812-0.11574-0.11493-0.2256-0.23073-0.34375-0.34375-0.0955-0.0913-0.21447-0.16367-0.3125-0.25zm4 4.625c-21.889 1.4984-43.765 3.0935-65.625 4.9688-19.974 1.7269-39.935 3.4989-59.875 5.5938-8.2992 0.87193-14.102 1.492-19.906 2.1562-5.8042 0.66307-11.606 1.3727-19.875 2.3438-6.2959 0.73927-12.611 1.4766-18.906 2.2188-27.22 3.2432-54.396 6.6442-81.656 9.5312-1.2999 0.13988-2.6064 0.26569-3.9062 0.40625 0.01132 0.46201 0.01422 0.91451 0.03125 1.375 0.7404-0.0892 1.4784-0.19185 2.2188-0.28125 27.494-3.2491 54.962-6.825 82.438-10.219 6.3238-0.76822 12.644-1.5507 18.969-2.3125 16.815-2.0254 22.969-2.7853 39.844-4.5625 19.936-2.0994 39.905-3.8653 59.875-5.5938 22.241-1.9316 44.505-3.5018 66.781-4.9688-0.13921-0.21682-0.26153-0.44337-0.40625-0.65625zm2.5625 4.5938c-27.04 2.152-54.092 4.2727-81.094 6.875-39.818 3.8363-79.585 8.0035-119.41 11.812-23.869 2.5061-47.733 5.233-71.594 7.8125-0.02063 0.002-0.04187-0.002-0.0625 0 0.02682 0.44701 0.06145 0.89852 0.09375 1.3438 23.508-2.8159 46.999-5.6075 70.531-8.2188 39.923-4.0574 79.837-8.308 119.78-12.156 27.311-2.6357 54.675-4.7439 82.031-6.8438-0.0933-0.21431-0.18404-0.4132-0.28125-0.625zm1.2812 3.1562c-19.556 1.6322-39.112 3.2828-58.656 5.0625-51.051 4.689-102.09 9.592-153.03 15.438-20.48 2.2511-40.941 4.5261-61.438 6.625 0.04912 0.51267 0.09936 1.0178 0.15625 1.5312 20.029-2.5042 40.08-4.8432 60.125-7.2188 51.091-6.2305 102.32-11.231 153.56-15.906 19.807-1.7968 39.646-3.3938 59.469-4.9688-0.0629-0.18741-0.12205-0.37656-0.1875-0.5625zm0.625 1.9375c-8.6174 0.74954-17.227 1.5146-25.844 2.2812-20.912 1.9545-28.202 2.5814-49.062 4.6875-23.338 2.3561-46.66 4.9656-69.969 7.5938-7.0442 0.79411-14.081 1.5813-21.125 2.375-29.908 3.362-59.829 6.7236-89.75 9.9688-5.8675 0.6394-11.725 1.2859-17.594 1.9062 0.06808 0.5196 0.14287 1.0425 0.21875 1.5625 5.0556-0.61169 10.13-1.2085 15.188-1.8125 30.199-3.6218 60.412-7.1499 90.625-10.656 7.0797-0.81984 14.139-1.6181 21.219-2.4375 23.375-2.7049 46.778-5.3647 70.188-7.75 20.991-2.1389 28.053-2.7439 49.094-4.7188 8.9977-0.79781 18-1.5788 27-2.3438-0.0622-0.22148-0.12202-0.43649-0.1875-0.65625zm1.1875 4.9688c-23.206 1.5791-46.419 3.2308-69.594 5.2188-19.974 1.7269-39.935 3.4989-59.875 5.5938-8.2992 0.87192-14.102 1.492-19.906 2.1562-5.8042 0.66308-11.606 1.3726-19.875 2.3438-6.2959 0.73927-12.579 1.4767-18.875 2.2188-27.22 3.2432-54.427 6.6442-81.688 9.5312-1.397 0.15034-2.7904 0.28641-4.1875 0.4375 0.07413 0.44728 0.13896 0.89641 0.21875 1.3438 0.78148-0.0941 1.5623-0.18688 2.3438-0.28125 27.494-3.2491 54.93-6.825 82.406-10.219 6.3238-0.76822 12.644-1.5194 18.969-2.2812 16.815-2.0254 23-2.8166 39.875-4.5938 19.936-2.0994 39.905-3.8341 59.875-5.5625 23.448-2.0364 46.921-3.6854 70.406-5.2188-0.0389-0.22651-0.0521-0.46211-0.0937-0.6875zm0.65625 4.6562c-27.726 2.208-55.438 4.3942-83.125 7.0625-39.818 3.8363-79.616 8.0035-119.44 11.812-23.816 2.5006-47.598 5.2068-71.406 7.7812 0.09072 0.45022 0.18489 0.89375 0.28125 1.3438 23.363-2.7984 46.738-5.5924 70.125-8.1875 39.923-4.0574 79.806-8.308 119.75-12.156 27.924-2.6948 55.905-4.7901 83.875-6.9375-0.0222-0.24123-0.0377-0.47822-0.0625-0.71875zm0.1875 2.2812c-19.191 1.6024-38.382 3.2222-57.562 4.9688-51.051 4.689-102.09 9.592-153.03 15.438-20.98 2.306-41.94 4.6401-62.938 6.7812 0.11661 0.51148 0.2512 1.0203 0.375 1.5312 20.455-2.5643 40.934-4.9488 61.406-7.375 51.091-6.2305 102.32-11.231 153.56-15.906 19.391-1.7591 38.812-3.3622 58.219-4.9062-0.0108-0.17641-0.0191-0.35509-0.0312-0.53125zm0.125 1.9688c-8.0862 0.70388-16.165 1.4056-24.25 2.125-20.912 1.9545-28.202 2.6127-49.062 4.7188-23.338 2.3561-46.66 4.9655-69.969 7.5938-7.0442 0.7941-14.081 1.5814-21.125 2.375-29.908 3.3619-59.829 6.7235-89.75 9.9688-6.2108 0.67682-12.412 1.3478-18.625 2 0.13613 0.52113 0.26274 1.0423 0.40625 1.5625 5.3372-0.64805 10.692-1.2686 16.031-1.9062 30.199-3.6218 60.412-7.1498 90.625-10.656 7.0797-0.81985 14.139-1.6181 21.219-2.4375 23.375-2.7049 46.778-5.3647 70.188-7.75 20.991-2.1389 28.053-2.7752 49.094-4.75 8.4039-0.74515 16.813-1.4404 25.219-2.1562-0.007-0.22896 0.01-0.45876 0-0.6875zm0.0312 5.0312c-22.288 1.5228-44.585 3.0906-66.844 5-19.974 1.7269-39.935 3.4989-59.875 5.5938-8.2992 0.87185-14.102 1.5232-19.906 2.1875-5.8042 0.66306-11.606 1.3414-19.875 2.3125-6.2959 0.73926-12.579 1.5079-18.875 2.25-27.22 3.2432-54.427 6.6442-81.687 9.5312-1.5848 0.17055-3.1651 0.32856-4.75 0.5 0.13248 0.44861 0.26836 0.89608 0.40625 1.3438 0.90723-0.1092 1.8116-0.2342 2.7188-0.34375 27.494-3.2491 54.93-6.8249 82.406-10.219 6.3238-0.76821 12.644-1.5506 18.969-2.3125 16.815-2.0255 23-2.7853 39.875-4.5625 19.936-2.0994 39.905-3.8653 59.875-5.5938 22.501-1.9542 45.026-3.5187 67.562-5 0.006-0.22874-0.005-0.45851 0-0.6875zm-0.1875 4.7812c-26.528 2.1106-53.042 4.1971-79.531 6.75-39.818 3.8363-79.616 8.0036-119.44 11.812-23.838 2.5029-47.638 5.2359-71.469 7.8125 0.14112 0.42613 0.29153 0.85622 0.4375 1.2812 23.331-2.7944 46.676-5.5646 70.031-8.1562 39.923-4.0574 79.806-8.308 119.75-12.156 26.686-2.5754 53.426-4.6354 80.156-6.6875 0.0168-0.21942 0.0471-0.43616 0.0625-0.65625zm-0.21875 2.5c-18.576 1.5524-37.153 3.1219-55.719 4.8125-51.05 4.689-102.06 9.6233-153 15.469-20.158 2.2156-40.327 4.4287-60.5 6.5 0.17594 0.48989 0.34892 0.9806 0.53125 1.4688 19.592-2.4429 39.206-4.7389 58.812-7.0625 51.091-6.2305 102.32-11.2 153.56-15.875 18.746-1.7006 37.49-3.254 56.25-4.75 0.0184-0.18581 0.045-0.37604 0.0625-0.5625zm-0.21875 2.0312c-7.3466 0.64027-14.686 1.2839-22.031 1.9375-20.912 1.9545-28.233 2.6127-49.094 4.7188-23.338 2.3561-46.628 4.9343-69.938 7.5625-7.0442 0.79449-14.081 1.5819-21.125 2.375-29.908 3.362-59.829 6.7548-89.75 10-5.2419 0.57123-10.476 1.1273-15.719 1.6875 0.19759 0.50144 0.38948 1.0008 0.59375 1.5 4.3065-0.51692 8.5989-1.048 12.906-1.5625 30.199-3.6218 60.412-7.1186 90.625-10.625 7.0797-0.81987 14.17-1.6493 21.25-2.4688 23.375-2.7049 46.747-5.3647 70.156-7.75 20.991-2.1389 28.084-2.744 49.125-4.7188 7.6441-0.67779 15.292-1.3471 22.938-2 0.0256-0.21695 0.038-0.43819 0.0625-0.65625zm-0.65625 5c-21.319 1.4636-42.646 3.0173-63.938 4.8438-19.974 1.7269-39.935 3.4989-59.875 5.5938-8.2992 0.87194-14.102 1.5232-19.906 2.1875-5.8041 0.66305-11.606 1.3414-19.875 2.3125-6.2959 0.73928-12.579 1.4766-18.875 2.2188-27.22 3.2432-54.427 6.6755-81.687 9.5625-0.45802 0.0493-0.91698 0.10685-1.375 0.15625 0.18013 0.41826 0.37771 0.83354 0.5625 1.25 27.212-3.2226 54.399-6.7658 81.594-10.125 6.3238-0.76813 12.644-1.5506 18.969-2.3125 16.815-2.0255 23-2.7853 39.875-4.5625 19.936-2.0994 39.873-3.8652 59.844-5.5938 21.499-1.8672 43.03-3.4176 64.562-4.8438 0.0377-0.22954 0.0894-0.45911 0.125-0.6875zm-0.90625 4.875c-25.319 2.0145-50.655 4.0322-75.938 6.4688-39.818 3.8363-79.585 8.0348-119.41 11.844-22.546 2.3673-45.088 4.8943-67.625 7.3438 0.19384 0.41307 0.3641 0.83898 0.5625 1.25 22.009-2.634 44.001-5.2429 66.031-7.6875 39.923-4.0574 79.837-8.2768 119.78-12.125 25.449-2.456 50.947-4.4474 76.438-6.4062 0.0516-0.22828 0.10678-0.45958 0.15625-0.6875zm-0.59375 2.5312c-18.285 1.5287-36.569 3.0547-54.844 4.7188-51.051 4.6889-102.09 9.6232-153.03 15.469-17.721 1.9478-35.426 3.8957-53.156 5.75 0.21967 0.4392 0.43139 0.87592 0.65625 1.3125 17.106-2.103 34.228-4.1278 51.344-6.1562 51.091-6.2305 102.32-11.2 153.56-15.875 18.423-1.6712 36.876-3.1843 55.312-4.6562 0.0487-0.18778 0.10905-0.37472 0.15625-0.5625zm-0.5625 2.0625c-6.9429 0.60552-13.902 1.1948-20.844 1.8125-20.912 1.9545-28.202 2.6127-49.062 4.7188-23.338 2.3562-46.66 4.9343-69.969 7.5625-7.0442 0.79411-14.081 1.6127-21.125 2.4062-29.908 3.362-59.829 6.7236-89.75 9.9688-2.6371 0.28738-5.2696 0.586-7.9062 0.875 0.24051 0.44525 0.47285 0.90158 0.71875 1.3438 1.664-0.19747 3.336-0.39501 5-0.59375 30.199-3.6218 60.412-7.1186 90.625-10.625 7.0797-0.81986 14.17-1.6494 21.25-2.4688 23.375-2.7049 46.747-5.3334 70.156-7.7188 20.991-2.1389 28.053-2.7752 49.094-4.75 7.2062-0.63896 14.417-1.2272 21.625-1.8438 0.0668-0.22869 0.12303-0.4585 0.1875-0.6875zm-1.625 5.0625c-20.599 1.4198-41.177 2.8914-61.75 4.6562-19.974 1.7269-39.935 3.4989-59.875 5.5938-8.2992 0.87194-14.133 1.5232-19.938 2.1875-5.8042 0.66305-11.575 1.3414-19.844 2.3125-6.2959 0.73927-12.611 1.4768-18.906 2.2188-24.92 2.9692-49.832 6.0929-74.781 8.8125 0.22138 0.37982 0.46214 0.74774 0.6875 1.125 24.414-2.9461 48.782-6.0792 73.187-9.0938 6.3239-0.76821 12.644-1.5506 18.969-2.3125 16.815-2.0255 23-2.7853 39.875-4.5625 19.936-2.0994 39.905-3.8653 59.875-5.5938 20.733-1.8006 41.486-3.3037 62.25-4.6875 0.0829-0.21838 0.16946-0.43685 0.25-0.65625zm-2.0938 4.9688c-24.204 1.9273-48.393 3.8582-72.562 6.1875-39.818 3.8363-79.616 8.0348-119.44 11.844-19.616 2.0596-39.207 4.2253-58.812 6.375 0.24618 0.39068 0.49951 0.76868 0.75 1.1562 19.01-2.2676 38.035-4.4823 57.062-6.5938 39.923-4.0575 79.837-8.308 119.78-12.156 24.273-2.3426 48.562-4.2531 72.875-6.125 0.1138-0.2299 0.23312-0.45544 0.34375-0.6875zm-1.4375 2.8125c-17.482 1.4637-34.965 2.9402-52.438 4.5312-51.051 4.6889-102.06 9.592-153 15.438-13.994 1.5381-28.002 3.0968-42 4.5938 0.24541 0.36506 0.50075 0.73174 0.75 1.0938 13.358-1.6142 26.731-3.1663 40.094-4.75 51.091-6.2305 102.32-11.231 153.56-15.906 17.559-1.5929 35.115-3.0298 52.688-4.4375 0.10991-0.19072 0.23632-0.36976 0.34375-0.5625zm-1.25 2.125c-5.908 0.51635-11.811 1.0369-17.719 1.5625-20.912 1.9545-28.233 2.5814-49.094 4.6875-23.338 2.3562-46.628 4.9655-69.938 7.5938-7.0442 0.7941-14.112 1.5814-21.156 2.375-28.648 3.2204-57.278 6.4448-85.937 9.5625 0.30215 0.41748 0.59894 0.83707 0.90625 1.25 27.9-3.3303 55.808-6.6045 83.719-9.8438 7.0797-0.81986 14.17-1.6181 21.25-2.4375 23.375-2.7049 46.747-5.3647 70.156-7.75 20.991-2.1389 28.084-2.7439 49.125-4.7188 6.0717-0.53837 12.146-1.0719 18.219-1.5938 0.15397-0.23295 0.31899-0.45069 0.46875-0.6875zm-4.125 5.1562c-15.125 1.0546-30.233 2.1739-45.344 3.4062 0.65302 0.15025 1.3125 0.2784 1.9688 0.4375 14.305-1.1582 28.618-2.1856 42.938-3.1562 0.21462-0.22249 0.41625-0.45823 0.625-0.6875-0.0622 0.004-0.12534-0.004-0.1875 0zm-6.3125 5.4062c-7.5953 0.60899-15.188 1.2408-22.781 1.875 0.72466 0.14438 1.4371 0.25176 2.1562 0.375 6.3932-0.51938 12.793-1.0017 19.188-1.5 0.45811-0.22464 0.92783-0.45586 1.375-0.71875 0.0198-0.0116 0.0427-0.0196 0.0625-0.0312zm-66.188 0.34375c-14.517 1.2887-29.034 2.6332-43.531 4.1562-8.2992 0.87193-14.102 1.492-19.906 2.1562-5.8042 0.66307-11.606 1.3726-19.875 2.3438-6.2959 0.73927-12.611 1.4766-18.906 2.2188-20.82 2.4807-41.604 5.0389-62.438 7.4062 0.26978 0.34515 0.53906 0.68966 0.8125 1.0312 20.253-2.497 40.497-5.1234 60.75-7.625 6.3238-0.76822 12.644-1.5194 18.969-2.2813 16.815-2.0255 22.969-2.8166 39.844-4.5938 14.39-1.5154 28.809-2.8474 43.219-4.125 0.34942-0.23048 0.70786-0.46046 1.0625-0.6875zm-8.6562 6.25c-35.779 3.5032-71.526 7.2019-107.31 10.625-15.249 1.6011-30.51 3.288-45.75 4.9688 0.28718 0.33776 0.55291 0.69746 0.84375 1.0312 14.627-1.7298 29.236-3.438 43.875-5.0625 35.854-3.6438 71.697-7.4153 107.56-10.938 0.25839-0.21132 0.52007-0.41524 0.78125-0.625zm-4.6562 3.9375c-37.547 3.5758-75.087 7.3869-112.56 11.688-10.891 1.1971-21.764 2.3817-32.656 3.5625 0.30957 0.333 0.59291 0.67154 0.90625 1 10.194-1.2188 20.398-2.4479 30.594-3.6562 37.673-4.5942 75.412-8.5092 113.19-12.125 0.17589-0.15792 0.35416-0.31139 0.53125-0.46875zm-3.3125 3.0312c-13.938 1.5057-27.88 3.054-41.812 4.625-7.0442 0.79411-14.081 1.5814-21.125 2.375-25.284 2.8422-50.583 5.6659-75.875 8.4375 0.38668 0.38179 0.7643 0.78146 1.1562 1.1562 24.466-2.9018 48.933-5.7535 73.406-8.5938 7.0797-0.81984 14.139-1.6493 21.219-2.4688 14.063-1.6273 28.148-3.2387 42.219-4.7812 0.26811-0.25634 0.54186-0.49457 0.8125-0.75zm-3.8125 3.7188c-7.1335 0.67915-14.278 1.3761-21.406 2.125-8.2992 0.87194-14.102 1.5233-19.906 2.1875-5.8042 0.66306-11.606 1.3413-19.875 2.3125-6.2959 0.73927-12.579 1.4767-18.875 2.2188-17.158 2.0444-34.305 4.1519-51.469 6.1562 0.33719 0.30262 0.69048 0.57762 1.0312 0.875 16.514-2.0626 33.015-4.1786 49.531-6.2188 6.3238-0.76821 12.644-1.5194 18.969-2.2812 16.815-2.0255 23-2.7853 39.875-4.5625 7.1486-0.75281 14.283-1.4764 21.438-2.1562 0.22336-0.22436 0.46267-0.43214 0.6875-0.65625zm-6.0312 6.1562c-29.27 2.9172-58.531 5.8867-87.812 8.6875-11.204 1.1764-22.396 2.3931-33.594 3.625 0.39137 0.31366 0.79186 0.59956 1.1875 0.90625 10.461-1.2217 20.938-2.4322 31.406-3.5938 29.411-2.9891 58.805-6.0739 88.219-9.0312 0.19431-0.20283 0.39882-0.39053 0.59375-0.59375zm-2.6562 2.75c-31.02 3.0263-62.032 6.1962-93 9.75-7.4303 0.81668-14.851 1.6239-22.281 2.4375 0.38515 0.2796 0.76735 0.57083 1.1562 0.84375 0.01027-0.0012 0.02098 0.0012 0.03125 0 6.6434-0.78831 13.294-1.5564 19.938-2.3438 31.195-3.8042 62.448-7.1606 93.719-10.25 0.14173-0.14773 0.29558-0.28942 0.4375-0.4375zm-3.125 3.25c-7.4785 0.83068-14.96 1.6568-22.438 2.5-7.0442 0.7941-14.081 1.5814-21.125 2.375-21.337 2.3985-42.69 4.7689-64.031 7.125 0.53969 0.33628 1.0756 0.67631 1.625 1 20.365-2.3995 40.726-4.7924 61.094-7.1562 7.0797-0.81986 14.139-1.6181 21.219-2.4375 7.6176-0.88151 15.256-1.7308 22.875-2.5938 0.26457-0.27 0.51666-0.54061 0.78125-0.8125zm-3.4375 3.4688c-0.80153 0.08318-1.6048 0.1658-2.4062 0.25-8.2992 0.87184-14.102 1.492-19.906 2.1562-5.8042 0.66306-11.606 1.3726-19.875 2.3438-6.2959 0.73927-12.579 1.4767-18.875 2.2188-12.641 1.5061-25.265 3.0534-37.906 4.5625 0.46692 0.24374 0.93362 0.48349 1.4062 0.71875 11.869-1.4945 23.721-3.0022 35.594-4.4688 6.3238-0.76812 12.644-1.5506 18.969-2.3125 16.815-2.0254 23-2.7853 39.875-4.5625 0.81345-0.08566 1.624-0.16544 2.4375-0.25 0.22701-0.22209 0.46096-0.4323 0.6875-0.65625zm-6.6875 6.2188c-22.714 2.2819-45.431 4.5763-68.156 6.75-5.6962 0.59808-11.4 1.1956-17.094 1.8125 0.59939 0.24621 1.2063 0.48509 1.8125 0.71875 4.7547-0.54198 9.5249-1.066 14.281-1.5938 22.784-2.3156 45.561-4.6725 68.344-7 0.2691-0.22569 0.54523-0.45818 0.8125-0.6875zm-3.75 3.0312c-24.807 2.4853-49.603 5.0948-74.375 7.9375-0.1463 0.01608-0.2912 0.04642-0.4375 0.0625 0.59378 0.19136 1.1827 0.35131 1.7812 0.53125 24.09-2.9184 48.206-5.5609 72.344-8.0312 0.22921-0.17092 0.45996-0.32619 0.6875-0.5zm-5.4062 3.75c-0.50985 0.05746-1.0214 0.09876-1.5312 0.15625-7.0442 0.79411-14.081 1.6127-21.125 2.4062-12.434 1.3977-24.878 2.7982-37.312 4.1875 1.022 0.21928 2.0639 0.43723 3.0938 0.625 10.963-1.278 21.943-2.5714 32.906-3.8438 7.0797-0.81986 14.139-1.6494 21.219-2.4688 0.37491-0.04338 0.75009-0.08164 1.125-0.125 0.54188-0.31041 1.0943-0.61011 1.625-0.9375zm-7.5938 3.875c-5.0399 0.58174-10 1.1632-17.125 2-6.2959 0.73927-12.579 1.4766-18.875 2.2188-1.3952 0.16624-2.7924 0.33298-4.1875 0.5 1.2358 0.11329 2.4812 0.21212 3.7188 0.28125 6.1775-0.75059 12.353-1.5058 18.531-2.25 6.6517-0.80126 11.107-1.3274 15.75-1.875 0.74564-0.26823 1.4646-0.57526 2.1875-0.875z" fill="url(#linearGradient4915)"/>
      <path id="path3769" d="m8.5112-150c-2.8008-30.617 7.5603-66.033 29.763-87.3 17.717-16.97 46.125-22.105 70.619-20.73 25.882 1.4522 45.838 28.363 71.702 30.115 20.112 1.3621 42.361-27.89 58.405-15.686 13.166 10.015-10.462 37.14 0.39006 49.625 7.6851 8.8421 26.297-2.9277 34.763 5.1702 11.517 11.016 11.52 31.177 9.1262 46.933-2.0113 13.237-7.4901 28.587-19.033 35.373-18.433 10.837-46.406-11.633-64.141-0.91204-28.444 17.194-40.009 45.851-67.79 52.927-25.354 6.4585-56.021 2.211-77.438-12.818-25.868-18.154-43.488-51.225-46.367-82.696z" fill="url(#radialGradient4917)"/>
      <path id="path3878" opacity=".80268" d="m-10.375-522.16c-21.314 0.28377-43.875 6.0053-58.094 19.625-20.849 19.971-31.019 54.253-28.344 83.5 2.7479 30.039 19.909 62.09 44.406 79.281 20.033 14.059 49.592 18.239 73.594 12.125 12.575-3.2032 21.646-11.343 31.438-21.406 9.7911-10.063 20.095-21.921 35.062-30.969 11.042-6.675 23.905-2.9815 35.406-0.0625s21.678 5.1135 28.781 0.9375c9.4374-5.5483 14.879-19.543 16.781-32.062 2.3047-15.169 1.7015-33.803-7.75-42.844-1.0861-1.0389-2.5218-1.5201-4.9375-1.6562-2.4157-0.13619-5.5534 0.20848-8.9062 0.625-3.3529 0.41652-6.9184 0.89219-10.594 0.5625-3.6753-0.32969-7.7198-1.6934-10.594-5-3.8168-4.3914-4.4624-10.046-3.9062-15.188 0.5561-5.1417 2.1831-10.2 3.625-14.969 1.4419-4.7689 2.6604-9.2558 2.8125-12.531 0.15209-3.2754-0.30783-4.804-2.25-6.2812-2.8769-2.1883-5.4461-2.4705-9.2188-1.6562-3.7726 0.81429-8.4136 3.0654-13.344 5.8125-9.8604 5.4942-20.882 13.342-33.312 12.5-14.467-0.97975-26.553-8.7483-38-15.875s-22.235-13.611-33.625-14.25c-2.974-0.16686-6.005-0.25904-9.0312-0.21875z" transform="translate(109.9 267.64)" stroke="#fff" stroke-width="2" fill="none"/>
      <path id="path3916" d="m170.38-197.19c-17.774 0-32.312 13.956-32.312 31.156s14.539 31.156 32.312 31.156c17.774 0 32.281-13.957 32.281-31.156s-14.508-31.156-32.281-31.156zm0 6.5625c14.142 0 25.469 11.027 25.469 24.594s-11.323 24.531-25.469 24.531-25.5-10.966-25.5-24.531 11.358-24.594 25.5-24.594z" style="block-progression:tb;color:#000000;text-transform:none;text-indent:0" fill="#fff"/>
      <path id="path3880" d="m207.46 5.6501c0 9.8999-8.0255 17.925-17.925 17.925-9.9 0-17.925-8.0255-17.925-17.925 0-9.8999 8.0255-17.925 17.925-17.925 9.8999 0 17.925 8.0255 17.925 17.925z" fill="url(#radialGradient4919)" transform="matrix(1.4729 0 0 1.4196 -108.51 -173.79)"/>
      <path id="path3890" d="m170.36-196.04c-17.162 0-31.128 13.461-31.128 30.001s13.967 30.001 31.128 30.001c17.162 0 31.128-13.461 31.128-30.001s-13.967-30.001-31.128-30.001zm0 4.272c14.752 0 26.646 11.511 26.646 25.729s-11.893 25.681-26.646 25.681c-14.752 0-26.646-11.463-26.646-25.681s11.893-25.729 26.646-25.729z" style="block-progression:tb;color:#000000;text-transform:none;text-indent:0" fill="url(#linearGradient4921)"/>
      <path id="path3924" fill="url(#radialGradient4923)" d="m192.64-185.32 4.3021 28.203 214.15-35.373-2.8681-20.076z"/>
      <path id="path3926" fill="url(#linearGradient4925)" d="m408.15-212.99s6.3907-1.9411 9.0822-3.8241c2.4943-1.745 6.2142-6.6922 6.2142-6.6922s17.956-1.557 26.769-3.3461c10.639-2.1598 24.857-9.5602 24.857-9.5602l5.7361 4.3021s0.0208 4.642 0.95603 6.6922c1.3127 2.8775 6.2142 7.1702 6.2142 7.1702l0.39005 9.0822s-2.3027 3.3338-2.7801 5.2581c-0.65224 2.629 0 8.1262 0 8.1262l-4.3021 6.6922s-18.755-3.0337-28.203-2.8681c-8.2011 0.14376-24.379 3.3461-24.379 3.3461s-4.8741-3.1692-7.6482-3.8241c-3.2566-0.76877-10.038 0-10.038 0z"/>
      <path id="path3944" d="m474.88-234.69c-1.3418 0.6961-13.875 7.1871-24.344 9.3125-8.7555 1.7775-25.294 3.2216-26.344 3.3125-0.28053 0.36623-0.75447 1.0178-1.7812 2.2188-1.2751 1.4914-2.8399 3.1979-4.3438 4.25-1.6031 1.1215-3.899 2.0461-5.875 2.7812-1.3089 0.48698-1.7418 0.64172-2.375 0.84375l2.5 17.938c0.69716-0.0666 1.0815-0.12547 2.4375-0.1875 2.155-0.0986 4.6941-0.1507 6.6562 0.3125 1.7201 0.40606 3.643 1.4147 5.25 2.3125 1.309 0.7313 1.9594 1.1805 2.3125 1.4062 0.93919-0.18635 15.802-3.1359 24.094-3.2812 9.3382-0.1637 25.843 2.4866 27.469 2.75l3.5312-5.4688c-0.0441-0.40085-0.15022-1.1626-0.21875-2.5938-0.0842-1.7593-0.10023-3.8364 0.3125-5.5 0.32551-1.3121 1.054-2.5977 1.7188-3.7188 0.50709-0.85517 0.77357-1.2427 0.96875-1.5312l-0.34375-8.0625c-0.34853-0.30991-1.0438-0.91734-2.2188-2.125-1.437-1.4771-3.043-3.2387-3.875-5.0625-0.64516-1.4143-0.84581-3.1352-0.96875-4.625-0.0876-1.0618-0.0865-1.4929-0.0937-1.9375l-4.4688-3.3438z" stroke="#fff" stroke-width=".6" fill="none"/>
      <path id="path3946" d="m407.91-213.47s6.3907-1.9411 9.0822-3.8241c2.4943-1.745 6.2142-6.6922 6.2142-6.6922s17.956-1.557 26.769-3.3461c10.639-2.1598 24.857-9.5602 24.857-9.5602l5.7361 4.3021s0.0208 4.642 0.95603 6.6922c1.3127 2.8775 6.2142 7.1702 6.2142 7.1702l0.39005 9.0822s-2.3027 3.3338-2.7801 5.2581c-0.65224 2.629 0 8.1262 0 8.1262l-4.3021 6.6922s-18.755-3.0337-28.203-2.8681c-8.2011 0.14376-24.379 3.3461-24.379 3.3461s-4.8741-3.1692-7.6482-3.8241c-3.2566-0.76877-10.038 0-10.038 0z" fill="url(#linearGradient4927)"/>
      <g id="text3956" fill="#fff" transform="rotate(84.691)">
        <path id="path3971" d="m-172.71-494.77c-0.1545 0.0911-0.33674 0.13668-0.5467 0.13667-0.27334 0.00001-0.51896-0.0951-0.73684-0.28523-0.21789-0.19015-0.35852-0.42586-0.42191-0.70713-0.29711-0.0238-0.53877-0.13469-0.72496-0.33277-0.17827-0.18619-0.2674-0.40606-0.2674-0.6596 0-0.26938 0.1129-0.49915 0.33871-0.68931 0.22581-0.19015 0.49915-0.28523 0.82004-0.28523 0.22977 0 0.39813 0.0198 0.50509 0.0594 0.618-0.55461 1.2142-0.82994 1.7886-0.82598 0.29315 0.004 0.53679 0.0812 0.73091 0.23175 0.19411 0.15054 0.29711 0.33872 0.309 0.56452 0.0158 0.24166-0.0218 0.45756-0.11291 0.64771-0.0634 0.1347-0.18025 0.29712-0.35059 0.48727-0.14658 0.16243-0.39418 0.33476-0.74279 0.51699-0.34862 0.17827-0.64178 0.28325-0.87947 0.31494 0.0555 0.15846 0.15252 0.23769 0.29118 0.23769 0.0277 0 0.0594-0.004 0.0951-0.0119 0.28522-0.0753 0.48726-0.20402 0.60611-0.38625 0.0555-0.0832 0.14856-0.13073 0.27929-0.14262h0.47539c0.0792 0.0159 0.1228 0.0535 0.13073 0.11291 0.008 0.0872 0.006 0.14856-0.006 0.18421-0.008 0.0317-0.0376 0.0871-0.0891 0.16638-0.16243 0.24562-0.28127 0.45954-0.35654 0.64177-0.16639 0.40408-0.27533 0.65762-0.32683 0.76062-0.15846 0.34069-0.29513 0.56254-0.41002 0.66554-0.39219 0.34861-0.87748 0.52292-1.4559 0.52292-0.41201 0-0.76458-0.10498-1.0577-0.31494-0.29315-0.206-0.43973-0.45558-0.43973-0.74873 0-0.19808 0.0218-0.35258 0.0654-0.4635 0.0317-0.0832 0.097-0.18223 0.19609-0.29712 0.103-0.11884 0.2476-0.17827 0.43379-0.17827 0.14658 0 0.27335 0.0456 0.38031 0.13667 0.10696 0.0872 0.16044 0.19412 0.16044 0.32089 0 0.17035-0.0753 0.30108-0.2258 0.39219-0.15847 0.0674-0.2377 0.17629-0.2377 0.32683 0 0.0951 0.0436 0.17431 0.13073 0.23769 0.0872 0.0674 0.19412 0.10102 0.32089 0.10102 0.29315 0.004 0.56056-0.12875 0.80221-0.39813 0.24562-0.26939 0.4219-0.61602 0.52887-1.0399m-1.2954-2.4601c-0.12281-0.0356-0.24165-0.0535-0.35654-0.0535-0.19015 0-0.3605 0.0614-0.51104 0.18421-0.15053 0.12281-0.2258 0.27731-0.2258 0.4635 0 0.18224 0.0535 0.33872 0.16044 0.46945 0.10696 0.12677 0.23571 0.19015 0.38625 0.19015 0.0356 0 0.0812-0.008 0.13667-0.0238 0.0238-0.44369 0.16044-0.85371 0.41002-1.2301m0.89135 1.3014c0.11488-0.008 0.22779-0.0356 0.33871-0.0832 0.26542-0.11489 0.49519-0.32287 0.68931-0.62395 0.33277-0.51896 0.49915-0.86361 0.49916-1.034-0.00001-0.11092-0.0495-0.19411-0.14856-0.24958-0.0277-0.0158-0.0614-0.0238-0.10102-0.0238-0.13866 0.00001-0.32287 0.10697-0.55264 0.32089-0.17431 0.16639-0.28721 0.29316-0.33871 0.38031-0.0277 0.0475-0.0594 0.0733-0.0951 0.0772 0.0475 0.0475 0.12281 0.1446 0.22581 0.29117 0.0555 0.099 0.0832 0.16441 0.0832 0.1961 0 0.0753-0.0436 0.1129-0.13073 0.1129-0.0515 0-0.11686-0.0396-0.19609-0.11884-0.0594-0.0594-0.11291-0.0911-0.16045-0.0951-0.0951 0.24958-0.14261 0.46548-0.14261 0.64771 0 0.0792 0.01 0.14658 0.0297 0.20204"/>
        <path id="path3973" d="m-170.86-493.63c-0.19015-0.004-0.28523-0.10895-0.28523-0.31495 0-0.19015 0.0654-0.412 0.1961-0.66554 0.11885-0.22976 0.27136-0.49321 0.45756-0.79032-0.43973 0.52688-0.68733 0.79033-0.74279 0.79032-0.0832 0.00001-0.12479-0.0416-0.12479-0.12478 0-0.0673 0.0456-0.14856 0.13667-0.24364 0.32485-0.38823 0.71308-0.84381 1.1647-1.3667 0.0475-0.0515 0.0931-0.0772 0.13667-0.0772 0.0792 0 0.18223 0.10498 0.309 0.31494 0.0713 0.11489 0.10696 0.20204 0.10696 0.26146 0 0.0436-0.0139 0.0951-0.0416 0.1545-0.0713 0.16639-0.18224 0.40408-0.33277 0.71308-0.0317 0.0555-0.0475 0.103-0.0475 0.14262 0 0.0555 0.0277 0.0753 0.0832 0.0594 0.0674-0.0238 0.1545-0.0911 0.26146-0.20204 0.22185-0.22977 0.50114-0.56848 0.83787-1.0161 0.0515-0.0713 0.16242-0.14657 0.33277-0.2258 0.1743-0.0832 0.309-0.12083 0.40408-0.11291 0.13072 0.008 0.19609 0.0555 0.19609 0.14262 0 0.0753-0.0456 0.20996-0.13667 0.40408-0.1545 0.29711-0.32683 0.63979-0.51698 1.028-0.0594 0.17034-0.0357 0.25552 0.0713 0.25552 0.0515 0 0.11488-0.0357 0.19015-0.10697 0.0911-0.0872 0.18421-0.18223 0.27929-0.28523 0.0475-0.0515 0.103-0.0772 0.16638-0.0772 0.0832 0 0.12479 0.0376 0.12479 0.11291 0 0.0357-0.0357 0.0951-0.10696 0.17827-0.39616 0.4635-0.79033 0.79032-1.1825 0.98048-0.0951 0.0475-0.18421 0.0713-0.2674 0.0713-0.12281 0-0.22383-0.0495-0.30306-0.14856-0.0674-0.0872-0.10102-0.19016-0.10102-0.309 0-0.0594 0.01-0.11489 0.0297-0.16639 0.0753-0.17034 0.18817-0.412 0.33871-0.72496-0.80419 0.90323-1.3489 1.3529-1.6341 1.3489"/>
        <path id="path3975" d="m-167.91-494.66c-0.0872-0.0555-0.10696-0.12083-0.0594-0.1961 0.0792-0.0911 0.24364-0.29315 0.49321-0.60612 0.12677-0.18619 0.25552-0.37238 0.38625-0.55857 0.14658-0.206 0.25948-0.3189 0.33872-0.33872 0.10696-0.0277 0.17034-0.0416 0.19015-0.0416 0.0357 0 0.0733 0.0238 0.1129 0.0713 0.17431 0.206 0.26146 0.35456 0.26147 0.44567-0.00001 0.10696-0.0812 0.33871-0.24364 0.69525-0.15054 0.33277-0.22581 0.5467-0.22581 0.64177 0 0.0436 0.0178 0.0654 0.0535 0.0654 0.0436 0 0.14262-0.0812 0.29712-0.24364 0.19015-0.20204 0.32088-0.30305 0.39219-0.30306 0.0832 0.00001 0.12479 0.0376 0.12479 0.11291 0 0.0396-0.0218 0.0971-0.0654 0.17233-0.10301 0.1743-0.32683 0.39813-0.67149 0.67148-0.37238 0.29711-0.64771 0.44567-0.82598 0.44567-0.11885 0-0.2159-0.0475-0.29117-0.14261-0.0594-0.0753-0.0891-0.14856-0.0891-0.21987 0-0.14658 0.0376-0.31098 0.11291-0.49321 0.0396-0.099 0.17629-0.38823 0.41002-0.86758-0.15847 0.19808-0.33872 0.412-0.54075 0.64177-0.0357 0.0277-0.0891 0.0436-0.16045 0.0475m2.4364-3.096c0.0713 0.0515 0.10696 0.14262 0.10697 0.27335-0.00001 0.19808-0.0654 0.37239-0.1961 0.52292-0.13073 0.14658-0.2892 0.21987-0.47539 0.21987-0.11488 0-0.21194-0.0277-0.29117-0.0832-0.0792-0.0594-0.11885-0.15845-0.11885-0.29711 0-0.17034 0.0634-0.33871 0.19016-0.5051 0.11884-0.1545 0.26938-0.23175 0.45161-0.23175 0.12677 0 0.23769 0.0337 0.33277 0.10102"/>
        <path id="path3977" d="m-165.12-496c-0.12677 0-0.19016-0.0495-0.19016-0.14856 0-0.0317 0.01-0.0673 0.0297-0.10696 0.0436-0.0753 0.1961-0.1129 0.45756-0.1129 0.0475-0.0555 0.0832-0.099 0.10696-0.13073 0.0277-0.0475 0.17431-0.29117 0.43974-0.73091 0.0436-0.0713 0.0911-0.10696 0.14261-0.10696 0.0475 0 0.103 0.0357 0.16639 0.10696 0.0515 0.0594 0.10101 0.11885 0.14855 0.17827 0.0555 0.0792 0.0832 0.16243 0.0832 0.24958-0.00001 0.0951-0.0277 0.20204-0.0832 0.32088 0-0.004-0.0218 0.0376-0.0654 0.12479 0.33277 0.00001 0.49915 0.0337 0.49915 0.10102 0 0.0198-0.01 0.0456-0.0297 0.0772-0.0713 0.103-0.10696 0.1545-0.10696 0.1545-0.0277 0.0238-0.0852 0.0357-0.17233 0.0357-0.0277 0-0.0852-0.002-0.17232-0.006-0.0832-0.004-0.15253-0.006-0.20799-0.006-0.15054 0.26543-0.24561 0.42785-0.28523 0.48727 0-0.008 0.0238-0.0515 0.0713-0.13073 0 0-0.0832 0.15648-0.24958 0.46944-0.16242 0.31297-0.25156 0.49322-0.2674 0.54075-0.0515 0.1347-0.0456 0.21987 0.0178 0.25552 0.0198 0.0119 0.0594 0.01 0.11884-0.006 0.0594-0.0198 0.10498-0.0455 0.13668-0.0772 0.15053-0.11884 0.32484-0.26344 0.52292-0.43379 0.0475-0.0515 0.103-0.0772 0.16639-0.0772 0.0832 0 0.12478 0.0376 0.12478 0.11291 0 0.0357-0.0357 0.0951-0.10696 0.17827-0.15846 0.19015-0.4021 0.40407-0.7309 0.64177-0.38427 0.27334-0.67149 0.41002-0.86164 0.41002-0.1545 0-0.27929-0.0575-0.37437-0.17233-0.0872-0.099-0.1228-0.20402-0.10696-0.31494 0.0357-0.27335 0.21789-0.69129 0.5467-1.2538-0.1545 0.19808-0.34862 0.43181-0.58235 0.70119-0.0753 0.0753-0.14658 0.0872-0.21392 0.0356-0.0713-0.0436-0.0713-0.10498 0-0.18421 0.2773-0.309 0.61998-0.70317 1.028-1.1825"/>
        <path id="path3979" d="m-161.55-496.25c0.0792-0.15846 0.11885-0.23967 0.11885-0.24364 0.0594-0.13469 0.13469-0.21392 0.22581-0.23769 0.0634-0.0158 0.16242 0.0475 0.29711 0.19015 0.10696 0.11489 0.16044 0.22581 0.16045 0.33277-0.00001 0.0753-0.0456 0.20006-0.13668 0.37437-0.103 0.20204-0.25948 0.50114-0.46944 0.89729-0.0792 0.14658-0.11885 0.27137-0.11885 0.37436 0 0.0673 0.0139 0.10895 0.0416 0.12479 0.0277 0.0159 0.11488-0.0356 0.26146-0.1545 0.13073-0.10696 0.23571-0.206 0.31494-0.29711 0.0475-0.0555 0.0772-0.0832 0.0891-0.0832 0.0238 0 0.0515 0.0198 0.0832 0.0594s0.0475 0.0733 0.0475 0.10102c0 0.0356-0.0257 0.0812-0.0772 0.13667-0.0515 0.0515-0.10499 0.10696-0.16044 0.16639-0.0832 0.0911-0.23374 0.22977-0.45162 0.41596-0.21393 0.18223-0.35852 0.29711-0.43379 0.34465-0.13469 0.0832-0.26542 0.12479-0.39219 0.12479-0.099 0-0.19016-0.0277-0.27335-0.0832-0.0792-0.0594-0.11885-0.14856-0.11884-0.26741-0.00001-0.0594 0.01-0.12478 0.0297-0.19609-0.22185 0.18619-0.40606 0.32088-0.55264 0.40408s-0.29315 0.12478-0.43973 0.12478-0.26741-0.0455-0.36248-0.13667c-0.0951-0.0911-0.14262-0.20798-0.14262-0.3506 0-0.14261 0.0376-0.29117 0.11291-0.44567-0.0872 0.008-0.14262 0.002-0.16639-0.0178-0.0238-0.0238-0.0357-0.0872-0.0357-0.19015 0-0.0238 0.0337-0.0673 0.10102-0.13073 0.0713-0.0634 0.13865-0.12479 0.20204-0.18421 0.099-0.0832 0.24957-0.24364 0.45161-0.48133 0.12281-0.17431 0.23175-0.30702 0.32683-0.39814 0.17431-0.15846 0.37635-0.27136 0.60612-0.33871 0.10299-0.0317 0.2159-0.0475 0.33871-0.0475 0.21788 0.00001 0.39219 0.0376 0.52292 0.11291m-1.2657 1.8362c0.0832 0 0.20402-0.0812 0.36248-0.24363 0.11884-0.12677 0.21986-0.25156 0.30306-0.37437 0.19015-0.28919 0.28523-0.50707 0.28523-0.65365 0-0.0951-0.0396-0.14262-0.11885-0.14262-0.10696 0-0.30702 0.20402-0.60017 0.61206-0.22581 0.31692-0.33871 0.54075-0.33871 0.67148 0 0.0872 0.0357 0.13073 0.10696 0.13073"/>
        <path id="path3981" d="m-160.13-495.87c-0.0911-0.0753-0.13667-0.16836-0.13667-0.27929 0-0.0911 0.0297-0.19609 0.0891-0.31494 0.099-0.19015 0.24364-0.28523 0.43379-0.28523 0.0713 0 0.13073 0.0198 0.17827 0.0594 0.0515 0.0396 0.0773 0.10103 0.0773 0.18421 0 0.0832-0.0238 0.17432-0.0713 0.27335 0.103 0.0594 0.2575 0.0555 0.46351-0.0119 0.1743-0.0594 0.29711-0.0891 0.36842-0.0891 0.10696 0 0.17034 0.0456 0.19015 0.13668 0.008 0.0317 0.0119 0.0634 0.0119 0.0951 0 0.0673-0.0198 0.14262-0.0594 0.22581-0.0396 0.0792-0.0792 0.15648-0.11885 0.23175-0.13073 0.27731-0.27731 0.5982-0.43973 0.96266-0.0475 0.13073-0.0475 0.20996 0 0.23769 0.0673 0 0.12676-0.0337 0.17827-0.10102 0.0951-0.0872 0.21392-0.20204 0.35654-0.34465 0.0396-0.0555 0.0931-0.0832 0.16044-0.0832 0.0396 0 0.0673 0.0119 0.0832 0.0357 0.0317 0.0317 0.0475 0.0594 0.0475 0.0832 0 0.0277-0.0357 0.0852-0.10696 0.17233-0.38031 0.45954-0.77052 0.78636-1.1706 0.98048-0.11092 0.0555-0.21789 0.0832-0.32088 0.0832-0.15054 0-0.27137-0.0535-0.36249-0.16044-0.0872-0.10696-0.12478-0.21789-0.1129-0.33277 0.0277-0.24958 0.22977-0.61008 0.60612-1.0815 0.14657-0.18223 0.21986-0.32485 0.21986-0.42785 0-0.099-0.0852-0.14856-0.25552-0.14856-0.42784 0.55858-0.73288 0.927-0.91511 1.1053-0.0674 0.0673-0.13668 0.0772-0.20799 0.0297-0.0317-0.0158-0.0475-0.0416-0.0475-0.0772s0.0158-0.0673 0.0475-0.0951c0.17035-0.19016 0.30306-0.34466 0.39814-0.4635 0.16242-0.206 0.30108-0.40606 0.41596-0.60018"/>
      </g>
      <g id="g4090" transform="translate(36.505 -260.35)">
        <path id="path4034" fill="url(#linearGradient4929)" d="m63.75 53.156-17.25 2.6875s4.8305 7.3416 4.4375 11.156c-0.39709 3.8545-0.72424 8.6329-1.0312 13.375l0.125-0.03125c0.000367-0.0052 0-0.125 0-0.125l17.188-2.719-3.469-24.344z"/>
        <path id="path4027" fill="url(#linearGradient4931)" d="m67.969 82.75 5.7188 41.75-17.125 1.6875c0.85493 2.7251 1.7231 5.3118 2.5 7.4062 1.6459 4.4373 1.3125 14.188 1.3125 14.188l16.53-2.34-8.937-62.69z"/>
        <path id="path3983" d="m50.025 80.206s-1.1665 16.309 0 24.336c1.0816 7.4437 6.4221 21.632 6.4221 21.632l17.238-1.69-6.4221-46.983z" fill="url(#linearGradient4933)"/>
        <path id="path4001" fill="url(#linearGradient4935)" d="m67.25 77.5-8 1.25 4.9375 46.688 9.5-0.9375-6.4375-47z"/>
        <path id="path4014" fill="url(#linearGradient4937)" d="m65.75 77.75-1.7812 0.25 3.75 47.094 2.0625-0.21875l-4.032-47.12z"/>
        <path id="path4069" d="m63.063 54.104c0.50983 4.1071-2.4063 7.8498-6.5134 8.3596-3.9059 0.48485-7.5212-2.1346-8.2772-5.9971l7.3541-1.4394z" fill="url(#linearGradient4939)"/>
        <path id="path4072" fill="url(#linearGradient4941)" d="m76.131 144.71c-0.5226-3.8404-4.0595-6.53-7.8999-6.0074-3.6523 0.49697-6.2976 3.7348-6.0565 7.4128l7.0028-0.45908z"/>
      </g>
      <path id="path4716" d="m399.44-211.94-1.5 0.1875 2.6875 20.875 1.5-0.25-2.6875-20.812z" style="block-progression:tb;color:#000000;text-transform:none;text-indent:0" fill="url(#linearGradient4943)"/>
      <path id="path4714" d="m383.84-209.97-1.5 0.1875 2.6875 21.469 1.5-0.25-2.6875-21.406z" style="block-progression:tb;color:#000000;text-transform:none;text-indent:0" fill="url(#linearGradient4943)"/>
      <path id="path4712" d="m369.28-208.12-1.5 0.1875 1.8125 22.188 1.5-0.25-1.8125-22.125z" style="block-progression:tb;color:#000000;text-transform:none;text-indent:0" fill="url(#linearGradient4943)"/>
      <path id="path4710" d="m354.16-206.22-1.4688 0.1875 3.7188 22.469 1.5-0.25-3.75-22.406z" style="block-progression:tb;color:#000000;text-transform:none;text-indent:0" fill="url(#linearGradient4943)"/>
      <path id="path4708" d="m340.22-204.47-1.5 0.1875 2.5625 23.219 1.4688-0.25-2.5312-23.156z" style="block-progression:tb;color:#000000;text-transform:none;text-indent:0" fill="url(#linearGradient4943)"/>
      <path id="path4706" d="m327.59-202.88-1.5 0.1875 3.375 23.562 1.4688-0.25-3.3438-23.5z" style="block-progression:tb;color:#000000;text-transform:none;text-indent:0" fill="url(#linearGradient4943)"/>
      <path id="path4704" d="m316.03-201.41-1.5 0.1875 3.3438 24 1.4688-0.21875-3.3125-23.969z" style="block-progression:tb;color:#000000;text-transform:none;text-indent:0" fill="url(#linearGradient4943)"/>
      <path id="path4702" d="m304.19-199.91-1.4688 0.1875 3.625 24.406 1.5-0.25-3.6562-24.344z" style="block-progression:tb;color:#000000;text-transform:none;text-indent:0" fill="url(#linearGradient4943)"/>
      <path id="path4700" d="m293.78-198.59-1.5 0.1875 3.875 24.781 1.4688-0.25-3.8438-24.719z" style="block-progression:tb;color:#000000;text-transform:none;text-indent:0" fill="url(#linearGradient4943)"/>
      <path id="path4698" d="m283.66-197.31-1.5 0.1875 3.5938 25.219 1.5-0.25-3.5938-25.156z" style="block-progression:tb;color:#000000;text-transform:none;text-indent:0" fill="url(#linearGradient4943)"/>
      <path id="path4696" d="m273.91-196.09-1.5 0.1875 3.8438 25.562 1.4688-0.21875-3.8125-25.531z" style="block-progression:tb;color:#000000;text-transform:none;text-indent:0" fill="url(#linearGradient4943)"/>
      <path id="path4694" d="m265.25-195-1.4688 0.1875 3.9062 25.906 1.4688-0.25l-3.91-25.85z" style="block-progression:tb;color:#000000;text-transform:none;text-indent:0" fill="url(#linearGradient4943)"/>
      <path id="path4692" d="m257.59-194.03-1.5 0.1875c0.81957 6.1045 1.8789 14.526 2.8438 22.281 0.19887 1.5985 0.31252 2.5052 0.5 4l1.5-0.25c-0.18153-1.4742-0.30408-2.3628-0.5-3.9375-0.96511-7.7571-2.0149-16.158-2.8438-22.281z" style="block-progression:tb;color:#000000;text-transform:none;text-indent:0" fill="url(#linearGradient4943)"/>
      <path id="path4690" d="m250-193.06-1.4688 0.1875 3.0625 26.625 1.5-0.25l-3.09-26.57z" style="block-progression:tb;color:#000000;text-transform:none;text-indent:0" fill="url(#linearGradient4943)"/>
      <path id="path4688" d="m241.75-192.03-1.4688 0.1875 3.75 26.844 1.4688-0.25-3.75-26.781z" style="block-progression:tb;color:#000000;text-transform:none;text-indent:0" fill="url(#linearGradient4943)"/>
      <path id="path4686" d="m234.72-191.12-1.4688 0.1875 3.8438 27.062 1.5-0.25-3.875-27z" style="block-progression:tb;color:#000000;text-transform:none;text-indent:0" fill="url(#linearGradient4943)"/>
      <path id="path4684" d="m228.38-190.34-1.4688 0.1875 3.375 27.406 1.4688-0.21875-3.375-27.375z" style="block-progression:tb;color:#000000;text-transform:none;text-indent:0" fill="url(#linearGradient4943)"/>
      <path id="path4682" d="m221.38-189.44-1.4688 0.1875 3.7188 27.625 1.4688-0.25-3.7188-27.562z" style="block-progression:tb;color:#000000;text-transform:none;text-indent:0" fill="url(#linearGradient4943)"/>
      <path id="path4680" d="m215.5-188.69-1.5312 0.1875 4.3438 27.75 1.5-0.25-4.3125-27.688z" style="block-progression:tb;color:#000000;text-transform:none;text-indent:0" fill="url(#linearGradient4943)"/>
      <path id="path4720" d="m433.03-214.53-341.31 42.094 0.125 1 341.28-42.094-0.0937-1z" style="block-progression:tb;color:#000000;text-transform:none;text-indent:0" fill="#ccc"/>
      <path id="path4722" d="m449.69-217.81-15.906 4.2188-341.12 45.938 0.15625 1 341.12-45.938h0.0624l15.938-4.25-0.25-0.96875z" style="block-progression:tb;color:#000000;text-transform:none;text-indent:0" fill="#ccc"/>
      <g id="g4560">
        <path id="path4392" d="m363.02-114.15c0 3.9202-3.1779 7.0981-7.0981 7.0981s-7.0981-3.1779-7.0981-7.0981 3.1779-7.0981 7.0981-7.0981 7.0981 3.1779 7.0981 7.0981z" fill="url(#radialGradient4981)" transform="matrix(.50174 .030213 -.030213 .50174 248.94 -168.4)"/>
        <path id="path4394" opacity=".52174" d="m434.46-215.59-6.9332-0.23877c-0.0582 0.22262-0.11622 0.44622-0.13058 0.68466-0.0134 0.2222 0.00034 0.4585 0.0265 0.67178l7.0155 0.35546c0.043-0.18868 0.0687-0.39877 0.0807-0.5983 0.0182-0.30301-0.005-0.58965-0.059-0.8748z" fill="url(#radialGradient4983)"/>
      </g>
      <path id="path4724" d="m463.62-220.09-15.906 4.0625-16.969 4.625h-0.0625l-336.78 50.781 0.125 1 336.88-50.781 0.0312-0.0312h0.0312l17-4.625h0.0312l15.875-4.0625-0.25-0.96875z" style="block-progression:tb;color:#000000;text-transform:none;text-indent:0" fill="#ccc"/>
      <g id="g4760">
        <path id="path4412" d="m363.02-114.15c0 3.9202-3.1779 7.0981-7.0981 7.0981s-7.0981-3.1779-7.0981-7.0981 3.1779-7.0981 7.0981-7.0981 7.0981 3.1779 7.0981 7.0981z" fill="url(#radialGradient4981)" transform="matrix(.37469 -.33506 .33506 .37469 366.15 -59.726)"/>
        <path id="path4414" opacity=".52174" d="m463.25-224.71-5.0506 4.7558c0.11711 0.19808 0.23507 0.39668 0.3943 0.57474 0.14839 0.16594 0.32587 0.32255 0.49578 0.4541l5.1914-4.7321c-0.10371-0.16339-0.23485-0.32952-0.3681-0.47853-0.20235-0.22627-0.4221-0.41175-0.66282-0.57394z" fill="url(#radialGradient4987)"/>
      </g>
      <g id="g4756">
        <path id="path4402" d="m363.02-114.15c0 3.9202-3.1779 7.0981-7.0981 7.0981s-7.0981-3.1779-7.0981-7.0981 3.1779-7.0981 7.0981-7.0981 7.0981 3.1779 7.0981 7.0981z" fill="url(#radialGradient4981)" transform="matrix(.49255 .10026 -.10026 .49255 259.58 -197.8)"/>
        <path id="path4404" opacity=".52174" d="m449.88-218.51-6.8312-1.2085c-0.0889 0.21226-0.17764 0.42552-0.22528 0.65959-0.0444 0.21813-0.0639 0.45403-0.0679 0.66887l6.8964 1.3356c0.0691-0.18079 0.12393-0.38521 0.1638-0.58109 0.0605-0.29745 0.078-0.58448 0.0642-0.87442z" fill="url(#radialGradient4991)"/>
      </g>
      <path id="path4726" d="m432.91-198.81-337.66 55.78l0.15625 1 337.66-55.781-0.15625-1z" style="block-progression:tb;color:#000000;text-transform:none;text-indent:0" fill="#ccc"/>
      <path id="path4728" d="m433.97-201.19-0.0312 0.0312-339.72 51.375 0.15625 0.96875 339.59-51.375h0.0937l15.125 1.0312 0.0625-1-15.219-1.0312h-0.0625z" style="block-progression:tb;color:#000000;text-transform:none;text-indent:0" fill="#ccc"/>
      <path id="path4730" d="m434.94-202.88-341.38 47.344 0.125 0.96875l341.32-47.31h0.0937l28.281 1.375 0.0625-1-28.406-1.375h-0.0937z" style="block-progression:tb;color:#000000;text-transform:none;text-indent:0" fill="#ccc"/>
      <g id="g4634" transform="matrix(.87545 -.093342 .093342 .87545 26.341 -8.0818)">
        <g id="g4574" transform="matrix(.56020 0 0 .56020 -147.08 -24.482)">
          <path id="path4576" d="m363.02-114.15c0 3.9202-3.1779 7.0981-7.0981 7.0981s-7.0981-3.1779-7.0981-7.0981 3.1779-7.0981 7.0981-7.0981 7.0981 3.1779 7.0981 7.0981z" fill="url(#radialGradient4981)" transform="matrix(.50174 .030213 -.030213 .50174 248.94 -168.4)"/>
          <path id="path4578" opacity=".52174" fill="url(#radialGradient4983)" d="m434.46-215.59-6.9332-0.23877c-0.0582 0.22262-0.11622 0.44622-0.13058 0.68466-0.0134 0.2222 0.00034 0.4585 0.0265 0.67178l7.0155 0.35546c0.043-0.18868 0.0687-0.39877 0.0807-0.5983 0.0182-0.30301-0.005-0.58965-0.059-0.8748z"/>
        </g>
        <g id="g4584" transform="matrix(.56020 0 0 .56020 -147.08 -31.096)">
          <path id="path4586" d="m363.02-114.15c0 3.9202-3.1779 7.0981-7.0981 7.0981s-7.0981-3.1779-7.0981-7.0981 3.1779-7.0981 7.0981-7.0981 7.0981 3.1779 7.0981 7.0981z" fill="url(#radialGradient4981)" transform="matrix(.50174 .030213 -.030213 .50174 248.94 -168.4)"/>
          <path id="path4588" opacity=".52174" fill="url(#radialGradient4983)" d="m434.46-215.59-6.9332-0.23877c-0.0582 0.22262-0.11622 0.44622-0.13058 0.68466-0.0134 0.2222 0.00034 0.4585 0.0265 0.67178l7.0155 0.35546c0.043-0.18868 0.0687-0.39877 0.0807-0.5983 0.0182-0.30301-0.005-0.58965-0.059-0.8748z"/>
        </g>
        <g id="g4594" transform="matrix(.56020 0 0 .56020 -147.08 -37.71)">
          <path id="path4596" d="m363.02-114.15c0 3.9202-3.1779 7.0981-7.0981 7.0981s-7.0981-3.1779-7.0981-7.0981 3.1779-7.0981 7.0981-7.0981 7.0981 3.1779 7.0981 7.0981z" fill="url(#radialGradient4981)" transform="matrix(.50174 .030213 -.030213 .50174 248.94 -168.4)"/>
          <path id="path4598" opacity=".52174" fill="url(#radialGradient4983)" d="m434.46-215.59-6.9332-0.23877c-0.0582 0.22262-0.11622 0.44622-0.13058 0.68466-0.0134 0.2222 0.00034 0.4585 0.0265 0.67178l7.0155 0.35546c0.043-0.18868 0.0687-0.39877 0.0807-0.5983 0.0182-0.30301-0.005-0.58965-0.059-0.8748z"/>
        </g>
        <g id="g4604" transform="matrix(.56020 0 0 .56020 -147.08 -44.324)">
          <path id="path4606" d="m363.02-114.15c0 3.9202-3.1779 7.0981-7.0981 7.0981s-7.0981-3.1779-7.0981-7.0981 3.1779-7.0981 7.0981-7.0981 7.0981 3.1779 7.0981 7.0981z" fill="url(#radialGradient4981)" transform="matrix(.50174 .030213 -.030213 .50174 248.94 -168.4)"/>
          <path id="path4608" opacity=".52174" fill="url(#radialGradient4983)" d="m434.46-215.59-6.9332-0.23877c-0.0582 0.22262-0.11622 0.44622-0.13058 0.68466-0.0134 0.2222 0.00034 0.4585 0.0265 0.67178l7.0155 0.35546c0.043-0.18868 0.0687-0.39877 0.0807-0.5983 0.0182-0.30301-0.005-0.58965-0.059-0.8748z"/>
        </g>
        <g id="g4614" transform="matrix(.56020 0 0 .56020 -147.08 -50.938)">
          <path id="path4616" d="m363.02-114.15c0 3.9202-3.1779 7.0981-7.0981 7.0981s-7.0981-3.1779-7.0981-7.0981 3.1779-7.0981 7.0981-7.0981 7.0981 3.1779 7.0981 7.0981z" fill="url(#radialGradient4981)" transform="matrix(.50174 .030213 -.030213 .50174 248.94 -168.4)"/>
          <path id="path4618" opacity=".52174" fill="url(#radialGradient4983)" d="m434.46-215.59-6.9332-0.23877c-0.0582 0.22262-0.11622 0.44622-0.13058 0.68466-0.0134 0.2222 0.00034 0.4585 0.0265 0.67178l7.0155 0.35546c0.043-0.18868 0.0687-0.39877 0.0807-0.5983 0.0182-0.30301-0.005-0.58965-0.059-0.8748z"/>
        </g>
        <g id="g4624" transform="matrix(.56020 0 0 .56020 -147.08 -57.553)">
          <path id="path4626" d="m363.02-114.15c0 3.9202-3.1779 7.0981-7.0981 7.0981s-7.0981-3.1779-7.0981-7.0981 3.1779-7.0981 7.0981-7.0981 7.0981 3.1779 7.0981 7.0981z" fill="url(#radialGradient4981)" transform="matrix(.50174 .030213 -.030213 .50174 248.94 -168.4)"/>
          <path id="path4628" opacity=".52174" fill="url(#radialGradient4983)" d="m434.46-215.59-6.9332-0.23877c-0.0582 0.22262-0.11622 0.44622-0.13058 0.68466-0.0134 0.2222 0.00034 0.4585 0.0265 0.67178l7.0155 0.35546c0.043-0.18868 0.0687-0.39877 0.0807-0.5983 0.0182-0.30301-0.005-0.58965-0.059-0.8748z"/>
        </g>
      </g>
      <g id="g4772">
        <path id="path4442" d="m363.02-114.15c0 3.9202-3.1779 7.0981-7.0981 7.0981s-7.0981-3.1779-7.0981-7.0981 3.1779-7.0981 7.0981-7.0981 7.0981 3.1779 7.0981 7.0981z" fill="url(#radialGradient4981)" transform="matrix(.19728 -.46232 .46232 .19728 416.08 -12.067)"/>
        <path id="path4444" opacity=".52174" d="m434.07-202.65-2.5578 6.4486c0.19005 0.12974 0.38109 0.25959 0.6008 0.35335 0.20474 0.0874 0.43188 0.15396 0.64153 0.20106l2.6954-6.4868c-0.16321-0.10401-0.35241-0.19886-0.53627-0.27732-0.27919-0.11914-0.55686-0.19394-0.84364-0.23877z" fill="url(#radialGradient5019)"/>
      </g>
      <g id="g4768">
        <path id="path4432" d="m363.02-114.15c0 3.9202-3.1779 7.0981-7.0981 7.0981s-7.0981-3.1779-7.0981-7.0981 3.1779-7.0981 7.0981-7.0981 7.0981 3.1779 7.0981 7.0981z" fill="url(#radialGradient4981)" transform="matrix(.38245 .32618 -.32618 .38245 275.11 -271.99)"/>
        <path id="path4434" opacity=".52174" d="m451.66-197.99-5.3923-4.3645c-0.18052 0.14271-0.36144 0.28632-0.51645 0.46808-0.14445 0.16937-0.27575 0.36631-0.38323 0.55238l5.3878 4.5072c0.14795-0.12475 0.29491-0.27706 0.42463-0.42915 0.19698-0.23096 0.35119-0.47368 0.4795-0.73404z" fill="url(#radialGradient5023)"/>
      </g>
      <g id="g4764">
        <path id="path4422" d="m363.02-114.15c0 3.9202-3.1779 7.0981-7.0981 7.0981s-7.0981-3.1779-7.0981-7.0981 3.1779-7.0981 7.0981-7.0981 7.0981 3.1779 7.0981 7.0981z" fill="url(#radialGradient4981)" transform="matrix(.49732 .072982 -.072982 .49732 278.49 -169.19)"/>
        <path id="path4424" opacity=".52174" d="m467.37-200.35-6.8874-0.83042c-0.077 0.21683-0.15393 0.43465-0.18862 0.67099-0.0323 0.22025-0.0388 0.45686-0.031 0.67159l6.9595 0.95373c0.059-0.18432 0.10252-0.39145 0.13154-0.58922 0.0441-0.30034 0.0457-0.5879 0.016-0.87664z" fill="url(#radialGradient5027)"/>
      </g>
      <path id="path4808" fill="url(#radialGradient5029)" d="m412.28-191.77-2.6291 0.239-2.6291-22.467 2.6291-0.239z"/>
      <path id="path4776" opacity=".25418" style="block-progression:tb;color:#000000;text-transform:none;text-indent:0" d="m408.31-210.47-316.59 39.031 0.125 1 316.62-39.062-0.15625-0.96875zm0.1875 1.2812-315.84 42.531 0.15625 1 315.84-42.531-0.15625-1zm0.28125 2.0938-314.88 47.469 0.125 1 314.91-47.469-0.15625-1zm1.2188 8.6875-316.44 43.875 0.125 0.96875 316.47-43.875l-0.16-0.97zm0.28125 1.8438-316.06 47.781 0.15625 0.96875 316.03-47.812-0.125-0.9375zm0.34375 2.4375-315.38 52.094 0.15625 1 315.34-52.094-0.125-1z"/>
      <path id="path4796" fill="url(#linearGradient4927)" d="m407.91-213.47s6.3907-1.9411 9.0822-3.8241c2.4943-1.745 6.2142-6.6922 6.2142-6.6922s17.956-1.557 26.769-3.3461c10.639-2.1598 24.857-9.5602 24.857-9.5602l5.7361 4.3021s0.0208 4.642 0.95603 6.6922c1.3127 2.8775 6.2142 7.1702 6.2142 7.1702l0.39005 9.0822s-2.3027 3.3338-2.7801 5.2581c-0.65224 2.629 0 8.1262 0 8.1262l-4.3021 6.6922s-18.755-3.0337-28.203-2.8681c-8.2011 0.14376-24.379 3.3461-24.379 3.3461s-4.8741-3.1692-7.6482-3.8241c-3.2566-0.76877-10.038 0-10.038 0z"/>
    </g>
    <path id="path5192" d="m816.02-471.99c-22.089 0.29409-45.779 6.0886-61.281 20.938-17.543 16.804-27.706 42.439-29.812 67.562 24.713-41.552 73.201-71.363 130.5-76.875-9.5737-5.7763-19.32-10.833-30.094-11.438-3.0618-0.17179-6.1569-0.22951-9.3125-0.1875zm129.81 11.656c-5.4676 0.24451-11.383 3.0435-17.469 6.4062 10.706 3.045 20.921 7.0065 30.531 11.719 1.2876-6.2206 1.1026-11.703-3.4375-15.156-3.0083-2.2882-6.2354-3.1203-9.625-2.9688z" fill="url(#linearGradient5785)"/>
  </g>
  <metadata>
    <rdf:RDF>
      <cc:Work>
        <dc:format>image/svg+xml</dc:format>
        <dc:type rdf:resource="http://purl.org/dc/dcmitype/StillImage"/>
        <cc:license rdf:resource="http://creativecommons.org/licenses/publicdomain/"/>
        <dc:publisher>
          <cc:Agent rdf:about="http://openclipart.org/">
            <dc:title>Openclipart</dc:title>
          </cc:Agent>
        </dc:publisher>
        <dc:title>Guitar</dc:title>
        <dc:date>2011-04-13T11:34:22</dc:date>
        <dc:description>acoustic, clip art, clipart, guitar, instrument, music, </dc:description>
        <dc:source>http://openclipart.org/detail/132283/guitar-by-gnokii</dc:source>
        <dc:creator>
          <cc:Agent>
            <dc:title>gnokii</dc:title>
          </cc:Agent>
        </dc:creator>
        <dc:subject>
          <rdf:Bag>
            <rdf:li>acoustic</rdf:li>
            <rdf:li>clip art</rdf:li>
            <rdf:li>clipart</rdf:li>
            <rdf:li>guitar</rdf:li>
            <rdf:li>instrument</rdf:li>
            <rdf:li>music</rdf:li>
          </rdf:Bag>
        </dc:subject>
      </cc:Work>
      <cc:License rdf:about="http://creativecommons.org/licenses/publicdomain/">
        <cc:permits rdf:resource="http://creativecommons.org/ns#Reproduction"/>
        <cc:permits rdf:resource="http://creativecommons.org/ns#Distribution"/>
        <cc:permits rdf:resource="http://creativecommons.org/ns#DerivativeWorks"/>
      </cc:License>
    </rdf:RDF>
  </metadata>
</svg>
